<?xml version="1.0" encoding="UTF-8"?>
<svg width="388px" height="87px" viewBox="0 0 388 87" version="1.1" xmlns="http://www.w3.org/2000/svg" xmlns:xlink="http://www.w3.org/1999/xlink">
    <!-- Generator: Sketch 49 (51002) - http://www.bohemiancoding.com/sketch -->
    <title>knockouttwitter</title>
    <desc>Created with Sketch.</desc>
    <defs></defs>
    <g id="Page-1" stroke="none" stroke-width="1" fill="none" fill-rule="evenodd">
        <path d="M99.9738021,49.1699471 C102.217592,49.1699471 103.870911,47.5953577 103.870911,44.6430026 C103.870911,41.7300122 102.217592,40.1554228 99.9738021,40.1554228 C97.7300122,40.1554228 96.1160581,41.769377 96.1160581,44.6430026 C96.1160581,47.5559929 97.7300122,49.1699471 99.9738021,49.1699471 Z" id="@marcelcutts" fill="#FFFFFF"></path>
        <path d="M172.798561,49.8391475 C174.45188,49.8391475 175.908375,49.0518529 176.498846,47.3591693 L176.498846,45.5090267 L173.270938,45.5090267 C170.869689,45.5090267 170.003665,46.3750509 170.003665,47.6740871 C170.003665,48.9337587 171.027148,49.8391475 172.798561,49.8391475 Z" id="@marcelcutts" fill="#FFFFFF"></path>
        <path d="M239.797339,37.8329035 C237.47482,37.8329035 235.860866,39.2500339 235.427854,41.4938238 L244.166825,41.4938238 C243.773178,39.2500339 242.119859,37.8329035 239.797339,37.8329035 Z" id="@marcelcutts" fill="#FFFFFF"></path>
        <path d="M0,0 L388,0 L388,87 L0,87 L0,0 Z M30.0455992,72.7992642 C57.699791,72.7992642 72.8217311,49.7949062 72.8217311,29.8471037 C72.8217311,29.1937012 72.808477,28.5432469 72.7792885,27.8957333 C75.7148598,25.7648296 78.2664508,23.1056123 80.2787033,20.0784889 C77.5849516,21.2808025 74.6860197,22.0901951 71.6449221,22.455158 C74.7490393,20.5861975 77.1320844,17.629716 78.2561918,14.1051852 C75.3513951,15.8343383 72.1344287,17.0911037 68.7093484,17.7695185 C65.9657672,14.8351086 62.0599738,13 57.7350238,13 C49.4324648,13 42.69955,19.7606222 42.69955,28.0944025 C42.69955,29.2790543 42.8314516,30.4313358 43.0893975,31.5365185 C30.5937926,30.9051951 19.5139393,24.8980444 12.0995303,15.7637012 C10.8083451,17.9946765 10.0638287,20.5861975 10.0638287,23.3513704 C10.0638287,28.5888667 12.7180074,33.2126963 16.7542369,35.9175333 C14.2876541,35.8410099 11.9705574,35.1611185 9.9451123,34.0294444 C9.94289918,34.0927827 9.94289918,34.1545333 9.94289918,34.2222272 C9.94289918,41.5332321 15.1252221,47.6375111 22.0046943,49.0208321 C20.7413574,49.3666642 19.4120672,49.5520864 18.0402779,49.5520864 C17.0729893,49.5520864 16.1306156,49.4564914 15.2146246,49.2798395 C17.1286811,55.2781605 22.6788631,59.6429827 29.2593582,59.7651309 C24.1136746,63.8150247 17.6313779,66.2270123 10.5862959,66.2270123 C9.37425164,66.2270123 8.17686803,66.1577877 7,66.0180395 C13.6537738,70.3004568 21.5547607,72.7992642 30.0463762,72.7992642 L30.0455992,72.7992642 Z M100.328085,26.180942 C88.5973938,26.180942 81,34.0145242 81,44.2493552 C81,54.6022804 88.558029,62.3964979 100.170626,62.3964979 C103.477263,62.3964979 107.098819,61.6879327 109.460703,60.5069906 L108.004208,56.294964 C105.4455,57.5152708 102.729334,58.0270124 100.170626,58.0270124 C91.7859373,58.0270124 86.2355097,52.2797611 86.2355097,44.2493552 C86.2355097,36.3764083 91.9040315,30.5504276 100.328085,30.5504276 C108.752138,30.5504276 114.381295,35.825302 114.381295,43.3833311 C114.381295,47.8709108 113.357812,49.4848649 111.901317,49.4848649 C110.956563,49.4848649 110.169268,48.8943939 110.169268,47.1229809 L110.169268,35.1167368 L103.752817,35.1167368 L103.752817,37.0456088 C102.45378,35.5891136 100.643003,34.8018189 98.2811185,34.8018189 C93.5573503,34.8018189 89.5421474,38.6595629 89.5421474,44.6430026 C89.5421474,50.6264422 93.6360798,54.523551 98.2811185,54.523551 C101.351568,54.523551 103.437899,53.2638795 104.658206,51.0988191 C105.602959,53.3426089 107.649925,54.523551 110.444822,54.523551 C115.404778,54.523551 119.105063,50.5477128 119.105063,43.2652369 C119.105063,33.6208769 111.507669,26.180942 100.328085,26.180942 Z M150.636216,32.5186643 C147.565766,32.5186643 144.928329,33.7389711 143.235645,35.8646668 C141.739786,33.5815121 139.259807,32.5186643 136.346817,32.5186643 C133.827474,32.5186643 131.583684,33.3846885 129.96973,35.1167368 L129.96973,32.8729469 L122.844713,32.8729469 L122.844713,54.2086331 L130.324012,54.2086331 L130.324012,43.6195195 C130.324012,40.3128818 131.898602,38.8563866 134.103027,38.8563866 C136.110628,38.8563866 137.330935,40.1554228 137.330935,43.2258721 L137.330935,54.2086331 L144.810235,54.2086331 L144.810235,43.6195195 C144.810235,40.3128818 146.384824,38.8563866 148.549885,38.8563866 C150.518121,38.8563866 151.777793,40.1554228 151.777793,43.2258721 L151.777793,54.2086331 L159.257092,54.2086331 L159.257092,42.0055654 C159.257092,35.3922899 155.596172,32.5186643 150.636216,32.5186643 Z M173.074114,32.5186643 C169.728112,32.5186643 166.106556,33.3846885 163.665943,34.9986426 L166.185286,40.0766934 C167.641781,38.9351161 169.924936,38.2265508 171.971902,38.2265508 C174.924257,38.2265508 176.380752,39.4468576 176.498846,41.611918 L172.247455,41.611918 C165.634179,41.611918 162.760554,44.0525316 162.760554,47.989005 C162.760554,51.6892901 165.594815,54.5629157 170.71223,54.5629157 C173.822044,54.5629157 175.94774,53.5000679 177.010588,51.4531017 L177.010588,54.2086331 L183.978146,54.2086331 L183.978146,42.359848 C183.978146,35.5891136 180.002308,32.5186643 173.074114,32.5186643 Z M195.826931,35.4316547 L195.826931,32.8729469 L188.701914,32.8729469 L188.701914,54.2086331 L196.181214,54.2086331 L196.181214,44.4068142 C196.181214,40.6671644 198.267544,39.1319397 201.298629,39.1319397 C201.849735,39.1319397 202.322112,39.1713045 202.991313,39.2500339 L202.991313,32.5186643 C199.842134,32.5186643 197.362156,33.5027827 195.826931,35.4316547 Z M216.76897,54.5629157 C221.610832,54.5629157 225.311117,52.3978553 226.767612,48.6975702 L220.980996,45.7452151 C219.957513,47.7528166 218.461653,48.6188408 216.729605,48.6188408 C214.131533,48.6188408 212.084566,46.808063 212.084566,43.5014253 C212.084566,40.273517 214.131533,38.4627392 216.729605,38.4627392 C218.461653,38.4627392 219.957513,39.3287634 220.980996,41.3363649 L226.767612,38.3840098 C225.311117,34.6837247 221.610832,32.5186643 216.76897,32.5186643 C209.604588,32.5186643 204.526537,37.0849735 204.526537,43.5014253 C204.526537,49.9966065 209.604588,54.5629157 216.76897,54.5629157 Z M251.173748,43.5801547 C251.173748,36.5338672 246.056332,32.5186643 239.757975,32.5186643 C233.026605,32.5186643 228.027284,37.0849735 228.027284,43.5014253 C228.027284,49.8785123 232.947876,54.5629157 240.545269,54.5629157 C244.599837,54.5629157 247.591557,53.3819737 249.638523,51.0988191 L245.70205,47.0048867 C244.245554,48.2645582 242.867789,48.8550292 240.781458,48.8550292 C238.025926,48.8550292 236.175784,47.5953577 235.545948,45.4302973 L251.055654,45.4302973 C251.095018,44.8398263 251.173748,44.131261 251.173748,43.5801547 Z M254.637844,54.2086331 L262.117144,54.2086331 L262.117144,25 L254.637844,25 L254.637844,54.2086331 Z M277.863038,54.5629157 C282.7049,54.5629157 286.405185,52.3978553 287.86168,48.6975702 L282.075064,45.7452151 C281.051581,47.7528166 279.555721,48.6188408 277.823673,48.6188408 C275.225601,48.6188408 273.178634,46.808063 273.178634,43.5014253 C273.178634,40.273517 275.225601,38.4627392 277.823673,38.4627392 C279.555721,38.4627392 281.051581,39.3287634 282.075064,41.3363649 L287.86168,38.3840098 C286.405185,34.6837247 282.7049,32.5186643 277.863038,32.5186643 C270.698656,32.5186643 265.620605,37.0849735 265.620605,43.5014253 C265.620605,49.9966065 270.698656,54.5629157 277.863038,54.5629157 Z M305.654541,32.8729469 L305.654541,43.1471427 C305.654541,46.7293335 303.843763,48.1858287 301.639338,48.1858287 C299.395548,48.1858287 298.096511,46.8867925 298.096511,43.5801547 L298.096511,32.8729469 L290.617212,32.8729469 L290.617212,44.8004615 C290.617212,51.5711959 294.435591,54.5629157 299.671101,54.5629157 C302.111714,54.5629157 304.394869,53.6968915 306.008823,51.9254785 L306.008823,54.2086331 L313.13384,54.2086331 L313.13384,32.8729469 L305.654541,32.8729469 Z M330.808606,48.1070992 C330.17877,48.5401113 329.352111,48.7762997 328.525451,48.7762997 C327.18705,48.7762997 326.281661,47.9102756 326.281661,46.3356862 L326.281661,39.2500339 L331.162889,39.2500339 L331.162889,33.6602416 L326.281661,33.6602416 L326.281661,28.109814 L318.802362,28.109814 L318.802362,33.6602416 L315.692548,33.6602416 L315.692548,39.2500339 L318.802362,39.2500339 L318.802362,46.4144156 C318.802362,51.8861138 321.990905,54.5629157 327.462604,54.5629157 C329.43084,54.5629157 331.359712,54.1692684 332.658748,53.3426089 L330.808606,48.1070992 Z M347.97163,48.1070992 C347.341794,48.5401113 346.515135,48.7762997 345.688476,48.7762997 C344.350075,48.7762997 343.444686,47.9102756 343.444686,46.3356862 L343.444686,39.2500339 L348.325913,39.2500339 L348.325913,33.6602416 L343.444686,33.6602416 L343.444686,28.109814 L335.965386,28.109814 L335.965386,33.6602416 L332.855572,33.6602416 L332.855572,39.2500339 L335.965386,39.2500339 L335.965386,46.4144156 C335.965386,51.8861138 339.15393,54.5629157 344.625628,54.5629157 C346.593865,54.5629157 348.522737,54.1692684 349.821773,53.3426089 L347.97163,48.1070992 Z M360.450251,54.5629157 C367.378444,54.5629157 371,51.4924664 371,47.5559929 C371,39.092575 358.44265,42.2811185 358.44265,39.3287634 C358.44265,38.5414687 359.348039,37.8329035 361.867382,37.8329035 C363.756889,37.8329035 365.882584,38.2265508 368.00828,39.4074929 L370.25207,34.3294421 C368.126374,33.1485001 364.819737,32.5186643 361.828017,32.5186643 C355.136012,32.5186643 351.435727,35.5891136 351.435727,39.6043165 C351.435727,48.146464 364.032442,44.879191 364.032442,47.7528166 C364.032442,48.6582055 363.205783,49.2093118 360.68644,49.2093118 C358.088367,49.2093118 355.214741,48.4613818 353.246505,47.2410751 L351.002715,52.3584906 C353.089046,53.6575268 356.828696,54.5629157 360.450251,54.5629157 Z" id="Combined-Shape" fill="#FFFFFF"></path>
        <g id="Twitter_Bird" transform="translate(7.000000, 13.000000)"></g>
    </g>
</svg>